#!OML:ASF E:\acrobat2\Project_11_07_03\Capture day 1\Session 1\Acrobat.ASF
:FULLY-SPECIFIED
:DEGREES
391
root 9.0835 11.9695 -9.43028 57.9693 -1.21694 -14.0784
lowerback 37.1346 6.37821 3.45693
upperback 18.1118 8.28892 7.35174
thorax 0.947088 3.45953 3.32586
lowerneck -13.585 -4.1397 -3.80307
upperneck -30.887 -8.8068 -10.1896
head -7.93301 -3.26607 -2.6269
rclavicle 6.04305e-014 1.17283e-014
rhumerus 32.2202 9.51395 -64.4721
rradius 49.6084
rwrist -10.6011
rhand -35.8451 -49.2663
rfingers 7.12502
rthumb -8.96038 -79.0561
lclavicle 6.04305e-014 1.17283e-014
lhumerus 82.1206 1.10124 59.5272
lradius 34.2347
lwrist 6.10225
lhand -44.2391 -27.9355
lfingers 7.12502
lthumb -17.0514 1.33616
rfemur -95.0654 -40.3405 29.3573
rtibia 69.57
rfoot -183.722 -1.51104
rtoes -5.36452
lfemur -67.6417 30.2449 -10.6122
ltibia 75.9505
lfoot -174.257 14.9201
ltoes 28.815
392
root 9.09333 12.0466 -9.16024 58.3643 -2.11797 -13.9449
lowerback 36.4563 6.54369 3.10984
upperback 18.3664 8.31789 7.23132
thorax 1.41703 3.46732 3.42563
lowerneck -13.6821 -4.28267 -4.3228
upperneck -30.8039 -8.9667 -10.2168
head -7.88887 -3.29068 -2.54719
rclavicle 6.75868e-014 2.26615e-014
rhumerus 32.4759 9.443 -64.2674
rradius 51.1384
rwrist -12.0288
rhand -37.058 -48.1395
rfingers 7.12502
rthumb -10.1306 -77.8756
lclavicle 6.75868e-014 2.26615e-014
lhumerus 81.2942 0.0405817 60.5877
lradius 34.232
lwrist 5.56725
lhand -44.5709 -28.8569
lfingers 7.12502
lthumb -17.3707 0.386921
rfemur -97.1183 -39.8557 30.1093
rtibia 68.8488
rfoot -185.35 -2.56622
rtoes -12.7446
lfemur -66.3638 30.5235 -10.6245
ltibia 77.893
lfoot -169.585 13.6216
ltoes 32.7319
393
root 9.09942 12.1239 -8.89442 58.7697 -3.06427 -13.9363
lowerback 35.8165 6.81944 2.67039
upperback 18.6098 8.46118 7.18998
thorax 1.8339 3.51366 3.6176
lowerneck -13.8176 -4.40761 -4.80612
upperneck -30.7155 -9.10888 -10.2914
head -7.83918 -3.31037 -2.49237
rclavicle -8.50798e-014 -3.8763e-014
rhumerus 32.9904 9.3595 -63.9142
rradius 52.7996
rwrist -12.6937
rhand -38.5783 -47.1128
rfingers 7.12502
rthumb -11.597 -76.7719
lclavicle -8.50798e-014 -3.8763e-014
lhumerus 80.4865 -0.896537 61.5948
lradius 34.2802
lwrist 5.2357
lhand -44.8959 -29.7379
lfingers 7.12502
lthumb -17.6835 -0.522048
rfemur -99.2278 -39.0882 31.0313
rtibia 68.1346
rfoot -186.618 -3.3638
rtoes -18.8344
lfemur -65.2429 30.9856 -10.5833
ltibia 79.7761
lfoot -164.622 11.6784
ltoes 36.297
394
root 9.10181 12.2001 -8.63291 59.2043 -4.00039 -13.9869
lowerback 35.185 7.14602 2.19037
upperback 18.8375 8.66505 7.20211
thorax 2.21477 3.57948 3.86888
lowerneck -14.0101 -4.51453 -5.2545
upperneck -30.6143 -9.21349 -10.3557
head -7.77476 -3.3209 -2.44306
rclavicle 1.04163e-013 8.90555e-014
rhumerus 33.7848 9.28438 -63.3715
rradius 54.5246
rwrist -12.4803
rhand -40.0083 -46.4815
rfingers 7.12502
rthumb -12.9758 -76.058
lclavicle 1.04163e-013 8.90555e-014
lhumerus 79.7525 -1.69575 62.4568
lradius 34.321
lwrist 5.15117
lhand -45.1898 -30.5824
lfingers 7.12502
lthumb -17.9663 -1.39228
rfemur -101.372 -38.1201 32.0922
rtibia 67.4261
rfoot -187.561 -3.96185
rtoes -22.7413
lfemur -64.3588 31.5652 -10.5224
ltibia 81.541
lfoot -159.902 9.04273
ltoes 39.1535
395
root 9.10084 12.2737 -8.37599 59.6722 -4.87755 -14.0287
lowerback 34.534 7.45993 1.72356
upperback 19.0503 8.86942 7.22977
thorax 2.58651 3.64379 4.13418
lowerneck -14.2317 -4.59466 -5.62812
upperneck -30.5362 -9.27253 -10.384
head -7.71204 -3.32141 -2.39632
rclavicle 1.51076e-014 2.5842e-015
rhumerus 34.8013 9.07983 -62.8556
rradius 56.5311
rwrist -11.2274
rhand -40.9847 -46.4784
rfingers 7.12502
rthumb -13.9169 -75.9926
lclavicle 1.51076e-014 2.5842e-015
lhumerus 79.0956 -2.45916 63.3386
lradius 34.287
lwrist 5.03862
lhand -45.5066 -31.365
lfingers 7.12502
lthumb -18.2711 -2.20311
rfemur -103.534 -37.0406 33.2529
rtibia 66.7171
rfoot -188.285 -4.47599
rtoes -24.5397
lfemur -63.7788 32.1992 -10.4861
ltibia 83.12
lfoot -155.484 6.01942
ltoes 41.1821
396
root 9.09706 12.343 -8.12431 60.1664 -5.65297 -13.9719
lowerback 33.8373 7.69101 1.32116
upperback 19.2519 9.00459 7.23151
thorax 2.98249 3.68119 4.36834
lowerneck -14.4569 -4.6395 -5.8791
upperneck -30.5064 -9.28452 -10.3722
head -7.66442 -3.31391 -2.35777
rclavicle -3.06128e-014 4.63168e-014
rhumerus 36.1415 8.79042 -62.2766
rradius 58.5403
rwrist -9.28813
rhand -41.3667 -47.1899
rfingers 7.12502
rthumb -14.285 -76.6785
lclavicle -3.06128e-014 4.63168e-014
lhumerus 78.5187 -3.19391 64.2069
lradius 34.1614
lwrist 4.83822
lhand -45.8538 -32.0708
lfingers 7.12502
lthumb -18.6051 -2.94056
rfemur -105.733 -35.9582 34.486
rtibia 66.0019
rfoot -188.841 -4.93431
rtoes -24.7599
lfemur -63.5581 32.8028 -10.5387
ltibia 84.434
lfoot -151.587 3.04243
ltoes 42.2104
397
root 9.09053 12.4073 -7.8787 60.6555 -6.31952 -13.8175
lowerback 33.1142 7.81871 1.01013
upperback 19.4453 9.05003 7.17365
thorax 3.41379 3.68578 4.52724
lowerneck -14.6658 -4.6385 -5.95778
upperneck -30.5204 -9.24569 -10.3357
head -7.63447 -3.29998 -2.33997
rclavicle 0 1.59028e-015
rhumerus 37.819 8.3919 -61.7031
rradius 60.4251
rwrist -7.02841
rhand -41.3794 -48.135
rfingers 7.12502
rthumb -14.2972 -77.6228
lclavicle 0 1.59028e-015
lhumerus 77.9981 -3.94003 65.1085
lradius 33.9302
lwrist 4.42446
lhand -46.2358 -32.7013
lfingers 7.12502
lthumb -18.9724 -3.60662
rfemur -107.923 -34.8795 35.7536
rtibia 65.2826
rfoot -189.364 -5.46244
rtoes -24.5831
lfemur -63.6792 33.3975 -10.6888
ltibia 85.4006
lfoot -148.391 0.669187
ltoes 42.1464
